<svg width="24" height="24" viewBox="0 0 24 24" fill="none" xmlns="http://www.w3.org/2000/svg">
<path d="M14.25 7.49994C14.25 7.20157 14.3685 6.91543 14.5795 6.70445C14.7905 6.49347 15.0766 6.37494 15.375 6.37494H22.875C23.1733 6.37494 23.4595 6.49347 23.6705 6.70445C23.8814 6.91543 24 7.20157 24 7.49994C24 7.79831 23.8814 8.08446 23.6705 8.29544C23.4595 8.50642 23.1733 8.62494 22.875 8.62494H15.375C15.0766 8.62494 14.7905 8.50642 14.5795 8.29544C14.3685 8.08446 14.25 7.79831 14.25 7.49994ZM22.875 10.8749H15.375C15.0766 10.8749 14.7905 10.9935 14.5795 11.2044C14.3685 11.4154 14.25 11.7016 14.25 11.9999C14.25 12.2983 14.3685 12.5845 14.5795 12.7954C14.7905 13.0064 15.0766 13.1249 15.375 13.1249H22.875C23.1733 13.1249 23.4595 13.0064 23.6705 12.7954C23.8814 12.5845 24 12.2983 24 11.9999C24 11.7016 23.8814 11.4154 23.6705 11.2044C23.4595 10.9935 23.1733 10.8749 22.875 10.8749ZM22.875 15.3749H17.625C17.3266 15.3749 17.0405 15.4935 16.8295 15.7044C16.6185 15.9154 16.5 16.2016 16.5 16.4999C16.5 16.7983 16.6185 17.0845 16.8295 17.2954C17.0405 17.5064 17.3266 17.6249 17.625 17.6249H22.875C23.1733 17.6249 23.4595 17.5064 23.6705 17.2954C23.8814 17.0845 24 16.7983 24 16.4999C24 16.2016 23.8814 15.9154 23.6705 15.7044C23.4595 15.4935 23.1733 15.3749 22.875 15.3749ZM14.5893 17.7187C14.6263 17.8618 14.6347 18.0107 14.6141 18.157C14.5934 18.3033 14.5442 18.4441 14.4692 18.5714C14.3941 18.6986 14.2947 18.8099 14.1767 18.8988C14.0587 18.9876 13.9243 19.0524 13.7812 19.0893C13.6382 19.1263 13.4892 19.1346 13.3429 19.114C13.1966 19.0934 13.0558 19.0442 12.9285 18.9691C12.8013 18.8941 12.69 18.7947 12.6012 18.6767C12.5123 18.5586 12.4475 18.4243 12.4106 18.2812C11.8743 16.1971 9.7631 14.6249 7.49997 14.6249C5.23685 14.6249 3.1256 16.1962 2.58935 18.2812C2.55241 18.4243 2.48766 18.5586 2.39879 18.6767C2.30993 18.7947 2.19868 18.8941 2.0714 18.9691C1.94413 19.0442 1.80332 19.0934 1.65702 19.114C1.51071 19.1346 1.36178 19.1263 1.21872 19.0893C1.07566 19.0524 0.941281 18.9876 0.823246 18.8988C0.705211 18.8099 0.605836 18.6986 0.530795 18.5714C0.455754 18.4441 0.406516 18.3033 0.385892 18.157C0.365269 18.0107 0.373664 17.8618 0.410598 17.7187C0.914973 15.7593 2.29404 14.1412 4.07716 13.2187C3.38826 12.5398 2.91688 11.6713 2.72299 10.7237C2.5291 9.77612 2.62147 8.79228 2.98834 7.89734C3.35521 7.0024 3.98 6.23682 4.78323 5.698C5.58646 5.15917 6.53182 4.87146 7.49904 4.87146C8.46625 4.87146 9.41161 5.15917 10.2148 5.698C11.0181 6.23682 11.6429 7.0024 12.0097 7.89734C12.3766 8.79228 12.469 9.77612 12.2751 10.7237C12.0812 11.6713 11.6098 12.5398 10.9209 13.2187C12.7059 14.1421 14.085 15.7603 14.5893 17.7187ZM7.49997 12.3749C8.01915 12.3749 8.52667 12.221 8.95835 11.9326C9.39002 11.6441 9.72648 11.2341 9.92516 10.7545C10.1238 10.2748 10.1758 9.74703 10.0745 9.23783C9.97325 8.72863 9.72324 8.2609 9.35613 7.89379C8.98902 7.52667 8.52129 7.27667 8.01209 7.17538C7.50289 7.07409 6.97509 7.12608 6.49543 7.32476C6.01577 7.52344 5.6058 7.85989 5.31737 8.29157C5.02893 8.72325 4.87497 9.23077 4.87497 9.74994C4.87497 10.0947 4.94287 10.436 5.07479 10.7545C5.20671 11.073 5.40006 11.3623 5.64382 11.6061C6.1361 12.0984 6.80378 12.3749 7.49997 12.3749Z" fill="#1A1A1A"/>
</svg>
